<?xml version="1.0" encoding="utf-8"?>
<!-- Generator: Adobe Illustrator 19.0.0, SVG Export Plug-In . SVG Version: 6.00 Build 0)  -->
<svg version="1.1" id="Layer_1" xmlns="http://www.w3.org/2000/svg" xmlns:xlink="http://www.w3.org/1999/xlink" x="0px" y="0px"
	 viewBox="184 322 1169.3 26" style="enable-background:new 184 322 1169.3 26;" xml:space="preserve">
<metadata><?xpacket begin="﻿" id="W5M0MpCehiHzreSzNTczkc9d"?>
<x:xmpmeta xmlns:x="adobe:ns:meta/" x:xmptk="Adobe XMP Core 5.6-c067 79.157747, 2015/03/30-23:40:42        ">
   <rdf:RDF xmlns:rdf="http://www.w3.org/1999/02/22-rdf-syntax-ns#">
      <rdf:Description rdf:about=""/>
   </rdf:RDF>
</x:xmpmeta>
                                                                                                    
                                                                                                    
                                                                                                    
                                                                                                    
                                                                                                    
                                                                                                    
                                                                                                    
                                                                                                    
                                                                                                    
                                                                                                    
                                                                                                    
                                                                                                    
                                                                                                    
                                                                                                    
                                                                                                    
                                                                                                    
                                                                                                    
                                                                                                    
                                                                                                    
                                                                                                    
                           
<?xpacket end="w"?></metadata>
<style type="text/css">
	.st0{fill:#FFFFFF;}
	.st1{fill:none;stroke:#EC2227;stroke-miterlimit:10;}
	.st2{fill:#EC2227;}
	.st3{fill:#1A1A1A;}
</style>
<rect x="183.9" y="322" class="st0" width="1169.3" height="12.4"/>
<g id="images">
</g>
<g id="layout">
</g>
<g id="stuff">
</g>
<g>
	<line class="st1" x1="184" y1="334.9" x2="742.6" y2="334.9"/>
	<line class="st1" x1="794.1" y1="334.9" x2="1353.3" y2="334.9"/>
	<g>
		<path class="st2" d="M756.6,334.1l2.5-11.9h5.1l-0.3,1.2h-2.8l-0.8,3.9h1.3c0.1,0,0.2,0,0.3,0c0.1,0,0.2,0,0.3,0
			c0.2,0,0.5,0.2,0.7,0.3c0.2,0.2,0.3,0.4,0.3,0.8c0,0.1,0,0.2,0,0.2c0,0.1,0,0.2,0,0.3l-0.7,3.2c-0.1,0.5-0.3,0.9-0.5,1.1
			c-0.2,0.2-0.5,0.4-0.7,0.5c-0.2,0.1-0.4,0.1-0.6,0.2c-0.2,0-0.4,0-0.5,0H756.6z M759.2,332.9h0.4c0.1,0,0.3-0.1,0.4-0.2
			c0.1-0.1,0.2-0.3,0.2-0.5l0.6-3c0,0,0-0.1,0-0.1c0,0,0-0.1,0-0.1c0-0.1,0-0.2-0.1-0.3c-0.1-0.1-0.2-0.1-0.3-0.1h-0.3L759.2,332.9z
			"/>
		<path class="st3" d="M764.8,334.3c-0.6,0-1-0.1-1.1-0.4c-0.2-0.2-0.3-0.5-0.3-0.8v-0.1c0-0.1,0-0.1,0-0.2c0-0.1,0-0.2,0-0.2
			c0,0,0-0.1,0-0.1c0,0,0-0.1,0-0.1l1.7-8.2c0-0.1,0.1-0.2,0.1-0.4c0-0.1,0.1-0.3,0.1-0.4c0.1-0.3,0.3-0.7,0.6-0.9
			c0.3-0.3,0.7-0.4,1.3-0.4h2c0.1,0,0.1,0,0.2,0c0.1,0,0.1,0,0.2,0c0.2,0,0.5,0.1,0.7,0.3c0.2,0.2,0.3,0.5,0.3,0.9
			c0,0.1,0,0.2,0,0.4c0,0.1,0,0.3-0.1,0.4l-1.7,8.2c0,0.1,0,0.2-0.1,0.3c0,0.1-0.1,0.2-0.1,0.4c-0.1,0.3-0.3,0.6-0.6,0.9
			c-0.3,0.3-0.7,0.4-1.4,0.4L764.8,334.3z M768.2,323.2c-0.1,0-0.2,0-0.3,0.1c-0.1,0.1-0.1,0.2-0.2,0.3l-1.9,9v0.1
			c0,0.1,0,0.2,0.1,0.3c0.1,0.1,0.2,0.1,0.2,0.1c0.1,0,0.1,0,0.2,0c0.1,0,0.2-0.1,0.2-0.1c0.1-0.1,0.1-0.2,0.1-0.3l1.9-8.9l0,0
			l0-0.1c0-0.1,0-0.2-0.1-0.2C768.4,323.3,768.3,323.2,768.2,323.2z"/>
		<path class="st3" d="M769.8,334.1l2.5-11.9h3.7c0.6,0,1,0.1,1.2,0.3c0.2,0.2,0.3,0.5,0.3,0.8v0c0,0.1,0,0.2,0,0.3
			c0,0.1,0,0.2,0,0.3c0,0,0,0.1,0,0.1c0,0,0,0.1,0,0.1l-0.8,3.9c0,0.1,0,0.2-0.1,0.3c0,0.1-0.1,0.2-0.1,0.3
			c-0.1,0.3-0.3,0.6-0.6,0.9c-0.3,0.3-0.8,0.4-1.4,0.4H773l-0.9,4.1L769.8,334.1L769.8,334.1z M773.2,328.7h0.3c0.2,0,0.4,0,0.5-0.1
			c0.1-0.1,0.2-0.2,0.2-0.4l0.9-4.2l0,0l0,0l0,0v0c0-0.1,0-0.2-0.1-0.3c-0.1-0.1-0.3-0.1-0.4-0.1h-0.3L773.2,328.7z"/>
		<path class="st3" d="M778.1,334.3c-0.6,0-1-0.1-1.1-0.4c-0.2-0.2-0.3-0.5-0.3-0.8v-0.1c0-0.1,0-0.1,0-0.2c0-0.1,0-0.2,0-0.2
			c0,0,0-0.1,0-0.1c0,0,0-0.1,0-0.1l1.7-8.2c0-0.1,0.1-0.2,0.1-0.4c0-0.1,0.1-0.3,0.1-0.4c0.1-0.3,0.3-0.7,0.6-0.9
			c0.3-0.3,0.7-0.4,1.3-0.4h2c0.1,0,0.1,0,0.2,0c0.1,0,0.1,0,0.2,0c0.2,0,0.5,0.1,0.7,0.3c0.2,0.2,0.3,0.5,0.3,0.9
			c0,0.1,0,0.2,0,0.4c0,0.1,0,0.3-0.1,0.4l-1.7,8.2c0,0.1,0,0.2-0.1,0.3c0,0.1-0.1,0.2-0.1,0.4c-0.1,0.3-0.3,0.6-0.6,0.9
			c-0.3,0.3-0.7,0.4-1.4,0.4L778.1,334.3z M781.4,323.2c-0.1,0-0.2,0-0.3,0.1c-0.1,0.1-0.1,0.2-0.2,0.3l-1.9,9v0.1
			c0,0.1,0,0.2,0.1,0.3c0.1,0.1,0.2,0.1,0.2,0.1c0.1,0,0.1,0,0.2,0c0.1,0,0.1-0.1,0.2-0.1c0.1-0.1,0.1-0.2,0.1-0.3l1.9-8.9l0,0
			l0-0.1c0-0.1,0-0.2-0.1-0.2C781.7,323.3,781.6,323.2,781.4,323.2z"/>
		<path class="st2" d="M756.5,347.8l0.4-3.2h-1.2l-0.9,3.2h-2.2l3.6-11.9h3.7l-1.2,11.9H756.5z M756,343.4h1.1l0.6-4.5l-0.4-0.1
			L756,343.4z"/>
		<path class="st3" d="M759.8,346.7h0.4c0.3,0,0.6-0.1,0.8-0.2c0.2-0.1,0.3-0.3,0.4-0.5l0.1-0.1c0,0,0-0.1,0-0.1l0.2-0.7l-0.3-9.1
			h2.4l-0.2,5.9l0,0l1.7-5.9h2.3l-4.2,10.5c-0.3,0.7-0.7,1.2-1,1.3c-0.4,0.2-0.8,0.2-1.4,0.2l-1.4,0L759.8,346.7z"/>
		<polygon class="st3" points="767.4,347.8 769.7,337.1 768.3,337.1 768.5,335.9 773.6,335.9 773.4,337.1 772,337.1 769.7,347.8 		
			"/>
		<path class="st3" d="M773.6,348c-0.6,0-1-0.1-1.1-0.4c-0.2-0.2-0.3-0.5-0.3-0.8v-0.1c0-0.1,0-0.1,0-0.2c0-0.1,0-0.2,0-0.2
			c0,0,0-0.1,0-0.1c0,0,0-0.1,0-0.1l1.7-8.2c0-0.1,0.1-0.2,0.1-0.4c0-0.1,0.1-0.3,0.1-0.4c0.1-0.3,0.3-0.7,0.6-0.9
			c0.3-0.3,0.7-0.4,1.3-0.4h2c0.1,0,0.1,0,0.2,0c0.1,0,0.1,0,0.2,0c0.2,0,0.5,0.1,0.7,0.3c0.2,0.2,0.3,0.5,0.3,0.9
			c0,0.1,0,0.2,0,0.4c0,0.1,0,0.3-0.1,0.4l-1.7,8.2c0,0.1,0,0.2-0.1,0.3c0,0.1-0.1,0.2-0.1,0.4c-0.1,0.3-0.3,0.6-0.6,0.9
			c-0.3,0.3-0.7,0.4-1.4,0.4L773.6,348z M777,336.9c-0.1,0-0.2,0-0.3,0.1c-0.1,0.1-0.1,0.2-0.2,0.3l-1.9,9v0.1c0,0.1,0,0.2,0.1,0.3
			c0.1,0.1,0.2,0.1,0.2,0.1c0.1,0,0.1,0,0.2,0c0.1,0,0.1-0.1,0.2-0.1c0.1-0.1,0.1-0.2,0.1-0.3l1.9-8.9l0,0l0-0.1
			c0-0.1,0-0.2-0.1-0.2C777.2,337,777.1,336.9,777,336.9z"/>
	</g>
</g>
</svg>
