<?xml version="1.0" encoding="utf-8"?>
<!-- Generator: Adobe Illustrator 19.0.0, SVG Export Plug-In . SVG Version: 6.00 Build 0)  -->
<svg version="1.1" id="Layer_1" xmlns="http://www.w3.org/2000/svg" xmlns:xlink="http://www.w3.org/1999/xlink" x="0px" y="0px"
	 viewBox="-356 298.96 87.271 72.04" enable-background="new -356 298.96 87.271 72.04" xml:space="preserve">
<metadata><?xpacket begin="﻿" id="W5M0MpCehiHzreSzNTczkc9d"?>
<x:xmpmeta xmlns:x="adobe:ns:meta/" x:xmptk="Adobe XMP Core 5.6-c067 79.157747, 2015/03/30-23:40:42        ">
   <rdf:RDF xmlns:rdf="http://www.w3.org/1999/02/22-rdf-syntax-ns#">
      <rdf:Description rdf:about=""/>
   </rdf:RDF>
</x:xmpmeta>
                                                                                                    
                                                                                                    
                                                                                                    
                                                                                                    
                                                                                                    
                                                                                                    
                                                                                                    
                                                                                                    
                                                                                                    
                                                                                                    
                                                                                                    
                                                                                                    
                                                                                                    
                                                                                                    
                                                                                                    
                                                                                                    
                                                                                                    
                                                                                                    
                                                                                                    
                                                                                                    
                           
<?xpacket end="w"?></metadata>
<g id="images">
</g>
<g id="layout">
</g>
<g id="stuff">
</g>
<g>
	<path fill="#EC2227" d="M-344.864,332.431l7.011-32.898h14.086l-0.728,3.348h-7.744l-2.273,10.755h3.496
		c0.235,0,0.496,0.007,0.784,0.019c0.282,0.014,0.58,0.046,0.89,0.098c0.653,0.125,1.281,0.422,1.851,0.879
		c0.553,0.442,0.821,1.214,0.796,2.295c0,0.21-0.014,0.436-0.039,0.68c-0.026,0.246-0.065,0.513-0.117,0.798l-1.895,8.963
		c-0.283,1.338-0.744,2.365-1.368,3.054c-0.628,0.692-1.296,1.185-1.983,1.465c-0.596,0.259-1.163,0.414-1.698,0.464
		c-0.537,0.051-0.984,0.078-1.33,0.078h-9.739V332.431z M-337.79,329.083h1.046c0.408,0,0.776-0.175,1.093-0.52
		c0.307-0.334,0.517-0.755,0.627-1.251l1.778-8.416c0.021-0.065,0.043-0.153,0.062-0.307c0.013-0.127,0.02-0.257,0.02-0.394
		c-0.024-0.363-0.103-0.612-0.26-0.849c-0.161-0.24-0.454-0.361-0.871-0.361h-0.946L-337.79,329.083z"/>
	<path fill="#EC2227" d="M-322.136,332.983c-1.63-0.027-2.66-0.368-3.149-1.046c-0.493-0.683-0.743-1.453-0.743-2.287v-0.356
		c0.025-0.193,0.058-0.408,0.096-0.628c0.04-0.224,0.073-0.444,0.1-0.658c0.027-0.106,0.046-0.203,0.059-0.293
		c0.012-0.084,0.03-0.161,0.053-0.232l4.828-22.706c0.075-0.297,0.154-0.635,0.233-0.991c0.077-0.347,0.194-0.704,0.347-1.061
		c0.363-0.961,0.954-1.827,1.765-2.6c0.799-0.76,2.048-1.145,3.713-1.145h5.491c0.181,0,0.363,0.007,0.545,0.019
		c0.178,0.014,0.374,0.033,0.583,0.059c0.656,0.076,1.274,0.351,1.843,0.817c0.555,0.457,0.836,1.331,0.836,2.596
		c0,0.312-0.02,0.656-0.058,1.033c-0.039,0.377-0.111,0.789-0.214,1.225l-4.821,22.679c-0.054,0.292-0.118,0.607-0.196,0.947
		c-0.077,0.335-0.182,0.689-0.311,1.049c-0.309,0.899-0.861,1.722-1.643,2.452c-0.772,0.721-2.062,1.088-3.833,1.088
		L-322.136,332.983z M-312.859,302.328c-0.353,0-0.658,0.12-0.909,0.356c-0.241,0.226-0.408,0.516-0.494,0.859l-5.298,24.828v0.252
		c0,0.275,0.1,0.515,0.297,0.712c0.199,0.199,0.426,0.3,0.675,0.3c0.281-0.036,0.356-0.058,0.438-0.086
		c0.223-0.095,0.415-0.234,0.591-0.41c0.19-0.19,0.317-0.434,0.375-0.724l5.285-24.769l0.039-0.103l0.012-0.21
		c-0.001-0.239-0.084-0.466-0.247-0.675C-312.26,302.444-312.526,302.328-312.859,302.328z"/>
	<path fill="#EC2227" d="M-308.258,332.431l7.011-32.898h10.273c1.632,0,2.711,0.314,3.206,0.934
		c0.504,0.631,0.773,1.334,0.799,2.089v0.116c0,0.277-0.02,0.556-0.058,0.827c-0.039,0.272-0.085,0.526-0.137,0.759
		c-0.027,0.107-0.047,0.209-0.061,0.304c-0.013,0.088-0.031,0.165-0.054,0.236l-2.335,10.878c-0.053,0.263-0.118,0.536-0.196,0.823
		c-0.078,0.285-0.169,0.571-0.273,0.857c-0.308,0.927-0.866,1.774-1.662,2.533c-0.785,0.746-2.081,1.125-3.852,1.125h-3.869
		l-2.449,11.417L-308.258,332.431L-308.258,332.431z M-298.775,317.666h0.731c0.598,0,1.047-0.137,1.375-0.408
		c0.326-0.269,0.549-0.675,0.661-1.206l2.466-11.575l-0.009-0.091l0.021-0.076l0.013-0.125v-0.132c0-0.293-0.09-0.562-0.266-0.798
		c-0.275-0.373-0.868-0.373-1.062-0.373h-0.787L-298.775,317.666z"/>
	<path fill="#EC2227" d="M-285.318,332.983c-1.629-0.027-2.66-0.369-3.149-1.047c-0.493-0.683-0.743-1.452-0.743-2.286v-0.356
		c0.025-0.193,0.058-0.407,0.096-0.627c0.04-0.226,0.073-0.446,0.1-0.659c0.026-0.104,0.045-0.2,0.059-0.289
		c0.012-0.091,0.031-0.168,0.054-0.239l4.827-22.703c0.074-0.297,0.154-0.634,0.233-0.99c0.077-0.348,0.194-0.704,0.347-1.062
		c0.363-0.96,0.954-1.826,1.765-2.6c0.799-0.76,2.048-1.145,3.713-1.145h5.491c0.181,0,0.363,0.007,0.546,0.019
		c0.177,0.014,0.373,0.033,0.582,0.059c0.656,0.076,1.274,0.351,1.843,0.817c0.555,0.457,0.836,1.331,0.836,2.596
		c0,0.312-0.02,0.656-0.058,1.033c-0.039,0.377-0.111,0.789-0.214,1.225l-4.821,22.679c-0.054,0.292-0.118,0.607-0.196,0.947
		c-0.077,0.335-0.182,0.689-0.311,1.049c-0.308,0.899-0.86,1.721-1.643,2.452c-0.772,0.722-2.061,1.088-3.833,1.088
		L-285.318,332.983z M-276.041,302.328c-0.353,0-0.659,0.12-0.909,0.356c-0.241,0.226-0.408,0.516-0.494,0.859l-5.298,24.828v0.252
		c0,0.275,0.1,0.515,0.298,0.712c0.198,0.199,0.425,0.3,0.675,0.3c0.282-0.036,0.358-0.059,0.44-0.086
		c0.221-0.095,0.414-0.234,0.59-0.41c0.19-0.19,0.317-0.434,0.375-0.724l5.285-24.769l0.042-0.107l0.01-0.209
		c-0.002-0.238-0.086-0.464-0.248-0.671C-275.442,302.444-275.708,302.328-276.041,302.328z"/>
	<path fill="#EC2227" d="M-345.157,370.427l1.044-8.85h-3.31l-2.427,8.85h-6.139l10.079-32.898h10.168l-3.225,32.898H-345.157z
		 M-346.594,358.23h2.957l1.597-12.342l-1.158-0.23L-346.594,358.23z"/>
	<path fill="#EC2227" d="M-335.925,367.276h0.989c0.963,0,1.664-0.184,2.143-0.564c0.464-0.37,0.81-0.792,1.029-1.256l0.162-0.405
		c0.054-0.137,0.095-0.26,0.124-0.37l0.558-1.875l-0.708-25.277h6.729l-0.633,16.449l0,0l4.725-16.449h6.438l-11.619,29.087
		c-0.919,2.016-1.899,3.264-2.901,3.683c-1.018,0.425-2.321,0.641-3.875,0.641l-3.932,0.038L-335.925,367.276z"/>
	<polygon fill="#EC2227" points="-314.924,370.427 -308.643,340.877 -312.556,340.877 -311.864,337.529 -297.698,337.529 
		-298.389,340.877 -302.3,340.877 -308.66,370.427 	"/>
	<path fill="#EC2227" d="M-297.648,370.98c-1.63-0.027-2.66-0.37-3.149-1.047c-0.493-0.683-0.743-1.453-0.743-2.287v-0.355
		c0.025-0.193,0.058-0.408,0.096-0.628c0.04-0.224,0.073-0.444,0.1-0.657c0.027-0.107,0.046-0.203,0.059-0.295
		c0.012-0.084,0.03-0.161,0.054-0.233l4.827-22.705c0.075-0.298,0.154-0.634,0.233-0.991c0.077-0.346,0.194-0.703,0.347-1.061
		c0.363-0.961,0.954-1.827,1.765-2.6c0.798-0.76,2.048-1.145,3.713-1.145h5.491c0.181,0,0.362,0.007,0.544,0.02
		c0.18,0.013,0.375,0.032,0.583,0.058c0.657,0.076,1.276,0.351,1.844,0.817c0.555,0.457,0.836,1.331,0.836,2.596
		c0,0.311-0.02,0.656-0.058,1.032c-0.039,0.377-0.111,0.79-0.214,1.226l-4.821,22.679c-0.054,0.293-0.118,0.607-0.196,0.947
		c-0.077,0.335-0.182,0.688-0.311,1.049c-0.308,0.898-0.86,1.721-1.642,2.452c-0.772,0.721-2.062,1.087-3.833,1.087L-297.648,370.98
		z M-288.371,340.324c-0.352,0-0.657,0.12-0.907,0.355c-0.243,0.228-0.41,0.518-0.495,0.859l-5.298,24.829v0.252
		c0,0.276,0.1,0.515,0.297,0.712c0.198,0.199,0.425,0.3,0.675,0.3c0.283-0.035,0.359-0.059,0.443-0.087
		c0.217-0.092,0.411-0.232,0.588-0.41c0.189-0.189,0.315-0.433,0.374-0.723l5.285-24.769l0.04-0.104l0.011-0.208
		c-0.001-0.239-0.084-0.465-0.247-0.674C-287.777,340.438-288.041,340.324-288.371,340.324z"/>
</g>
</svg>
